<svg xmlns="http://www.w3.org/2000/svg" height="48px" viewBox="0 0 24 24" width="48px" fill="#ffffff">
  <rect fill="#1a73e8" height="24" width="24"/>
  <path d="M9.65,3L3,9.65V7.53L7.53,3H9.65z M3,3v1.74L4.74,3H3z M16.17,6.42L19.59,3h-2.12l-2.42,2.42 C15.46,5.7,15.84,6.04,16.17,6.42z M7.42,13.04L5.5,14.97c0.88-0.41,1.78-0.75,2.71-0.99C7.91,13.7,7.65,13.38,7.42,13.04z M17.5,10.04l3.5-3.5V4.41l-3.8,3.8c0.19,0.56,0.3,1.16,0.3,1.78C17.5,10.01,17.5,10.02,17.5,10.04z M13.04,4.6l1.6-1.6h-2.12 L10.9,4.61C11.26,4.54,11.62,4.5,12,4.5C12.35,4.5,12.7,4.54,13.04,4.6z M6.61,8.9L3,12.51v2.12l3.6-3.6C6.54,10.7,6.5,10.35,6.5,10 C6.5,9.62,6.54,9.26,6.61,8.9z M20.73,16.7L21,16.44v-2.12l-1.3,1.3C20.11,15.92,20.45,16.29,20.73,16.7z M21,11.49V9.36l-4.76,4.76 c0.53,0.15,1.06,0.33,1.58,0.54L21,11.49z M8,10c0-2.21,1.79-4,4-4s4,1.79,4,4c0,2.21-1.79,4-4,4S8,12.21,8,10z M10,10 c0,1.1,0.9,2,2,2s2-0.9,2-2c0-1.1-0.9-2-2-2S10,8.9,10,10z M20,19.22V21H4v-1.78c0-1.12,0.61-2.15,1.61-2.66 C7.29,15.7,9.47,15,12,15c2.53,0,4.71,0.7,6.39,1.56C19.39,17.07,20,18.1,20,19.22z M17.98,19c-0.06-0.29-0.24-0.53-0.5-0.66 C16.29,17.73,14.37,17,12,17c-2.37,0-4.29,0.73-5.48,1.34c-0.26,0.13-0.44,0.38-0.5,0.66L17.98,19z"/>
</svg>
