<?xml version="1.0"?>
<svg xmlns="http://www.w3.org/2000/svg" height="48px" width="48px" viewBox="0 0 189.62 191.59">
<rect fill="#1a73e8" height="200" width="200"/>
<path d="M105.76,87h0a4.67,4.67,0,0,0,6.08,1.24c14.48-8.43,64.37-36.2,79.35-63.83C203.85,1.05,177.32,3.08,162.08,5.88a42.27,42.27,0,0,0-18.38,8.28c-14.09,11-36.18,31.36-39,69.46A5,5,0,0,0,105.76,87Z" transform="translate(-4.89 -4.23)" style="fill:#fff"/>
<path d="M164.51,69.06c-9.67,5.9-19.39,11.2-28.4,15.59A40,40,0,0,1,101,140a94.91,94.91,0,0,1-11.4,31.65,73.37,73.37,0,0,0,9.44.62,71.91,71.91,0,0,0,72.38-72.19A72.89,72.89,0,0,0,164.51,69.06Z" transform="translate(-4.89 -4.23)" style="fill:#fff"/>
<path d="M62,115.25A39.3,39.3,0,0,1,59,100.07c0-22,17.89-40.17,39.62-40.39a99.28,99.28,0,0,1,12.33-31.21,73.21,73.21,0,0,0-11.93-1A72.09,72.09,0,0,0,26.8,100.07a72.87,72.87,0,0,0,6.39,30A283.74,283.74,0,0,1,62,115.25Z" transform="translate(-4.89 -4.23)" style="fill:#fff"/>
<path d="M92.51,112.74h0a4.67,4.67,0,0,0-6.08-1.24C72,119.94,23.19,148,8.21,175.65-4.44,199,22.09,197,37.32,194.18a42.37,42.37,0,0,0,18.39-8.28c14.08-11,35-31.68,37.82-69.78A5,5,0,0,0,92.51,112.74Z" transform="translate(-4.89 -4.23)" style="fill:#fff"/>
<circle cx="94.24" cy="95.64" r="9.15" style="fill:#fff;"/>
</svg>
