<svg xmlns="http://www.w3.org/2000/svg" height="48px" viewBox="0 0 24 24" width="48px" fill="#ffffff">
  <rect fill="#ff0000" height="24" width="24"/>
  <path d="M11 5c0-.55.45-1 1-1s1 .45 1 1v5.17l1.82 1.82c.11-.31.18-.64.18-.99V5c0-1.66-1.34-3-3-3S9 3.34 9 5v1.17l2 2V5zM2.81 2.81L1.39 4.22l11.65 11.65c-.33.08-.68.13-1.04.13-2.76 0-5-2.24-5-5H5c0 3.53 2.61 6.43 6 6.92V21h2v-3.08c.57-.08 1.12-.24 1.64-.46l5.14 5.14 1.41-1.41L2.81 2.81zM19 11h-2c0 .91-.26 1.75-.69 2.48l1.46 1.46C18.54 13.82 19 12.47 19 11z" />
</svg>
