<svg xmlns="http://www.w3.org/2000/svg" height="48px" viewBox="0 0 24 24" width="48px" fill="#ffffff">
  <rect fill="#d93025" height="24" width="24"/>
  <path d="M20.83 18l2 2H24v-2zM20 6v10.01h-1.16l1.86 1.86c.75-.29 1.29-1.01 1.29-1.87L22 6c0-1.11-.9-2-2-2H6.83l2 2H20zm0 14l-3.99-3.99-4.42-4.42-1.44-1.44L6 6 4 4 2.81 2.81 1.39 4.22l.85.85C2.09 5.35 2 5.66 2 6v10c0 1.1.89 2 2 2H0v2h17.17l2.61 2.61 1.41-1.41L20 20zM4 16.01V6.83l5.07 5.07c-.04.19-.07.39-.07.6V14h2.17l2.01 2.01H4zm8.33-6.51l2.33 2.34L16 10.5l-3-3v2z"/>
</svg>
