<svg xmlns="http://www.w3.org/2000/svg" height="48px" viewBox="0 0 24 24" width="48px" fill="#ffffff">
  <rect fill="#000000" height="24" width="24"/>
  <path d="M15.5 11q.625 0 1.062-.438Q17 10.125 17 9.5t-.438-1.062Q16.125 8 15.5 8t-1.062.438Q14 8.875 14 9.5t.438 1.062Q14.875 11 15.5 11Zm-7 0q.625 0 1.062-.438Q10 10.125 10 9.5t-.438-1.062Q9.125 8 8.5 8t-1.062.438Q7 8.875 7 9.5t.438 1.062Q7.875 11 8.5 11Zm3.5 6.5q1.7 0 3.088-.962Q16.475 15.575 17.1 14H6.9q.625 1.575 2.013 2.538Q10.3 17.5 12 17.5Zm0 4.5q-2.075 0-3.9-.788-1.825-.787-3.175-2.137-1.35-1.35-2.137-3.175Q2 14.075 2 12t.788-3.9q.787-1.825 2.137-3.175 1.35-1.35 3.175-2.138Q9.925 2 12 2t3.9.787q1.825.788 3.175 2.138 1.35 1.35 2.137 3.175Q22 9.925 22 12t-.788 3.9q-.787 1.825-2.137 3.175-1.35 1.35-3.175 2.137Q14.075 22 12 22Zm0-10Zm0 8q3.35 0 5.675-2.325Q20 15.35 20 12q0-3.35-2.325-5.675Q15.35 4 12 4 8.65 4 6.325 6.325 4 8.65 4 12q0 3.35 2.325 5.675Q8.65 20 12 20Z"/>
</svg>
